%
M48
M72
T01C0.0315
T02C0.0320
T03C0.0590
%
T01
X2440Y260
X2590Y260
T02
X140Y210
X140Y360
X140Y460
X440Y210
X640Y160
X840Y310
X940Y310
X1040Y310
X1140Y310
X1240Y210
X1390Y210
X1590Y210
X1690Y210
X1390Y410
X1340Y510
X1140Y610
X1040Y610
X940Y610
X840Y610
X740Y710
X1040Y710
X1340Y710
X1590Y510
X1690Y510
X1690Y1010
X1690Y1160
X1590Y1160
X1490Y1160
X1390Y1160
X1190Y1210
X1040Y1110
X840Y1110
X740Y1010
X740Y1210
X740Y1410
X940Y1410
X1040Y1560
X1190Y1410
X1390Y1460
X1490Y1460
X1590Y1460
X1690Y1460
X1890Y1360
X2090Y1460
X2290Y1460
X2490Y1360
X2490Y1260
X2290Y1260
X1890Y1560
X1340Y1560
X1390Y1010
X440Y1010
X340Y1010
X340Y1110
X340Y1210
X440Y1210
X340Y1360
X140Y1460
X140Y1560
X340Y1560
X640Y360
X940Y210
X2490Y1660
T03
X2160Y1149
X2308Y960
X2056Y851
X1980Y749
X2160Y649
X2308Y460
X2056Y351
X1980Y249
X1857Y632
X1857Y1132
M30
