G75*
G70*
%OFA0B0*%
%FSLAX24Y24*%
%IPPOS*%
%LPD*%
%AMOC8*
5,1,8,0,0,1.08239X$1,22.5*
%
%ADD10C,0.0520*%
%ADD11C,0.0520*%
%ADD12C,0.0600*%
D10*
X007843Y006601D02*
X008363Y006601D01*
X008363Y007601D02*
X007843Y007601D01*
X007843Y008601D02*
X008363Y008601D01*
X008363Y009601D02*
X007843Y009601D01*
X007843Y010601D02*
X008363Y010601D01*
X008363Y011601D02*
X007843Y011601D01*
X007843Y012601D02*
X008363Y012601D01*
X008363Y013601D02*
X007843Y013601D01*
X010843Y013601D02*
X011363Y013601D01*
X011363Y012601D02*
X010843Y012601D01*
X010843Y011601D02*
X011363Y011601D01*
X011363Y010601D02*
X010843Y010601D01*
X010843Y009601D02*
X011363Y009601D01*
X011363Y008601D02*
X010843Y008601D01*
X010843Y007601D02*
X011363Y007601D01*
X011363Y006601D02*
X010843Y006601D01*
X020843Y006601D02*
X021363Y006601D01*
X021363Y007601D02*
X020843Y007601D01*
X020843Y008601D02*
X021363Y008601D01*
X021363Y009601D02*
X020843Y009601D01*
X020843Y010601D02*
X021363Y010601D01*
X021363Y011601D02*
X020843Y011601D01*
X020843Y012601D02*
X021363Y012601D01*
X021363Y013601D02*
X020843Y013601D01*
X023843Y013601D02*
X024363Y013601D01*
X024363Y012601D02*
X023843Y012601D01*
X023843Y011601D02*
X024363Y011601D01*
X024363Y010601D02*
X023843Y010601D01*
X023843Y009601D02*
X024363Y009601D01*
X024363Y008601D02*
X023843Y008601D01*
X023843Y007601D02*
X024363Y007601D01*
X024363Y006601D02*
X023843Y006601D01*
X024343Y022601D02*
X024863Y022601D01*
X024863Y023601D02*
X024343Y023601D01*
X024343Y024601D02*
X024863Y024601D01*
X024863Y025601D02*
X024343Y025601D01*
X024343Y026601D02*
X024863Y026601D01*
X024863Y027601D02*
X024343Y027601D01*
X024343Y028601D02*
X024863Y028601D01*
X024863Y029601D02*
X024343Y029601D01*
X021863Y029601D02*
X021343Y029601D01*
X021343Y028601D02*
X021863Y028601D01*
X021863Y027601D02*
X021343Y027601D01*
X021343Y026601D02*
X021863Y026601D01*
X021863Y025601D02*
X021343Y025601D01*
X021343Y024601D02*
X021863Y024601D01*
X021863Y023601D02*
X021343Y023601D01*
X021343Y022601D02*
X021863Y022601D01*
X011863Y022601D02*
X011343Y022601D01*
X011343Y023601D02*
X011863Y023601D01*
X011863Y024601D02*
X011343Y024601D01*
X011343Y025601D02*
X011863Y025601D01*
X011863Y026601D02*
X011343Y026601D01*
X011343Y027601D02*
X011863Y027601D01*
X011863Y028601D02*
X011343Y028601D01*
X011343Y029601D02*
X011863Y029601D01*
X008863Y029601D02*
X008343Y029601D01*
X008343Y028601D02*
X008863Y028601D01*
X008863Y027601D02*
X008343Y027601D01*
X008343Y026601D02*
X008863Y026601D01*
X008863Y025601D02*
X008343Y025601D01*
X008343Y024601D02*
X008863Y024601D01*
X008863Y023601D02*
X008343Y023601D01*
X008343Y022601D02*
X008863Y022601D01*
D11*
X008603Y015101D03*
X010603Y015101D03*
X021603Y015101D03*
X023603Y015101D03*
X024103Y031101D03*
X022103Y031101D03*
X011103Y031101D03*
X009103Y031101D03*
D12*
X005903Y001601D02*
X005303Y001601D01*
X005303Y002601D02*
X005903Y002601D01*
X005903Y003601D02*
X005303Y003601D01*
X005303Y004601D02*
X005903Y004601D01*
X005903Y006101D02*
X005303Y006101D01*
X005303Y007101D02*
X005903Y007101D01*
X005903Y008101D02*
X005303Y008101D01*
X005303Y009101D02*
X005903Y009101D01*
X005903Y010601D02*
X005303Y010601D01*
X005303Y011601D02*
X005903Y011601D01*
X005903Y012601D02*
X005303Y012601D01*
X005303Y013601D02*
X005903Y013601D01*
X005803Y017601D02*
X006403Y017601D01*
X006403Y018601D02*
X005803Y018601D01*
X005803Y019601D02*
X006403Y019601D01*
X006403Y020601D02*
X005803Y020601D01*
X005803Y022101D02*
X006403Y022101D01*
X006403Y023101D02*
X005803Y023101D01*
X005803Y024101D02*
X006403Y024101D01*
X006403Y025101D02*
X005803Y025101D01*
X005803Y026601D02*
X006403Y026601D01*
X006403Y027601D02*
X005803Y027601D01*
X005803Y028601D02*
X006403Y028601D01*
X006403Y029601D02*
X005803Y029601D01*
X003403Y029601D02*
X002803Y029601D01*
X002803Y028601D02*
X003403Y028601D01*
X003403Y027601D02*
X002803Y027601D01*
X002803Y026601D02*
X003403Y026601D01*
X003403Y025101D02*
X002803Y025101D01*
X002803Y024101D02*
X003403Y024101D01*
X003403Y023101D02*
X002803Y023101D01*
X002803Y022101D02*
X003403Y022101D01*
X003403Y020601D02*
X002803Y020601D01*
X002803Y019601D02*
X003403Y019601D01*
X003403Y018601D02*
X002803Y018601D01*
X002803Y017601D02*
X003403Y017601D01*
X013803Y011601D02*
X014403Y011601D01*
X014403Y010601D02*
X013803Y010601D01*
X013803Y009601D02*
X014403Y009601D01*
X014403Y008601D02*
X013803Y008601D01*
X018803Y009101D02*
X019403Y009101D01*
X019403Y008101D02*
X018803Y008101D01*
X018803Y007101D02*
X019403Y007101D01*
X019403Y006101D02*
X018803Y006101D01*
X018803Y004601D02*
X019403Y004601D01*
X019403Y003601D02*
X018803Y003601D01*
X018803Y002601D02*
X019403Y002601D01*
X019403Y001601D02*
X018803Y001601D01*
X018803Y010601D02*
X019403Y010601D01*
X019403Y011601D02*
X018803Y011601D01*
X018803Y012601D02*
X019403Y012601D01*
X019403Y013601D02*
X018803Y013601D01*
X019303Y017601D02*
X019903Y017601D01*
X019903Y018601D02*
X019303Y018601D01*
X019303Y019601D02*
X019903Y019601D01*
X019903Y020601D02*
X019303Y020601D01*
X019303Y022101D02*
X019903Y022101D01*
X019903Y023101D02*
X019303Y023101D01*
X019303Y024101D02*
X019903Y024101D01*
X019903Y025101D02*
X019303Y025101D01*
X019303Y026601D02*
X019903Y026601D01*
X019903Y027601D02*
X019303Y027601D01*
X019303Y028601D02*
X019903Y028601D01*
X019903Y029601D02*
X019303Y029601D01*
X014903Y027601D02*
X014303Y027601D01*
X014303Y026601D02*
X014903Y026601D01*
X014903Y025601D02*
X014303Y025601D01*
X014303Y024601D02*
X014903Y024601D01*
X027303Y024601D02*
X027903Y024601D01*
X027903Y025601D02*
X027303Y025601D01*
X027303Y026601D02*
X027903Y026601D01*
X027903Y027601D02*
X027303Y027601D01*
X027303Y011601D02*
X027903Y011601D01*
X027903Y010601D02*
X027303Y010601D01*
X027303Y009601D02*
X027903Y009601D01*
X027903Y008601D02*
X027303Y008601D01*
M02*
