%
M48
M72
T01C0.0320
T02C0.0400
%
T01
X810Y660
X810Y760
X810Y860
X810Y960
X810Y1060
X810Y1160
X810Y1260
X810Y1360
X860Y1510
X1060Y1510
X1110Y1360
X1110Y1260
X1110Y1160
X1110Y1060
X1110Y960
X1110Y860
X1110Y760
X1110Y660
X2110Y660
X2110Y760
X2110Y860
X2110Y960
X2110Y1060
X2110Y1160
X2110Y1260
X2110Y1360
X2160Y1510
X2360Y1510
X2410Y1360
X2410Y1260
X2410Y1160
X2410Y1060
X2410Y960
X2410Y860
X2410Y760
X2410Y660
X2460Y2260
X2460Y2360
X2460Y2460
X2460Y2560
X2460Y2660
X2460Y2760
X2460Y2860
X2460Y2960
X2410Y3110
X2210Y3110
X2160Y2960
X2160Y2860
X2160Y2760
X2160Y2660
X2160Y2560
X2160Y2460
X2160Y2360
X2160Y2260
X1160Y2260
X1160Y2360
X1160Y2460
X1160Y2560
X1160Y2660
X1160Y2760
X1160Y2860
X1160Y2960
X1110Y3110
X910Y3110
X860Y2960
X860Y2860
X860Y2760
X860Y2660
X860Y2560
X860Y2460
X860Y2360
X860Y2260
T02
X560Y160
X560Y260
X560Y360
X560Y460
X560Y610
X560Y710
X560Y810
X560Y910
X560Y1060
X560Y1160
X560Y1260
X560Y1360
X610Y1760
X610Y1860
X610Y1960
X610Y2060
X610Y2210
X610Y2310
X610Y2410
X610Y2510
X610Y2660
X610Y2760
X610Y2860
X610Y2960
X310Y2960
X310Y2860
X310Y2760
X310Y2660
X310Y2510
X310Y2410
X310Y2310
X310Y2210
X310Y2060
X310Y1960
X310Y1860
X310Y1760
X1410Y1160
X1410Y1060
X1410Y960
X1410Y860
X1910Y810
X1910Y710
X1910Y610
X1910Y460
X1910Y360
X1910Y260
X1910Y160
X1910Y910
X1910Y1060
X1910Y1160
X1910Y1260
X1910Y1360
X1960Y1760
X1960Y1860
X1960Y1960
X1960Y2060
X1960Y2210
X1960Y2310
X1960Y2410
X1960Y2510
X1960Y2660
X1960Y2760
X1960Y2860
X1960Y2960
X1460Y2760
X1460Y2660
X1460Y2560
X1460Y2460
X2760Y2460
X2760Y2560
X2760Y2660
X2760Y2760
X2760Y1160
X2760Y1060
X2760Y960
X2760Y860
M30
