%
M48
M72
T01C0.0320
T02C0.0400
T03C0.0440
T04C0.0790
%
T01
X210Y210
X410Y310
X410Y510
X510Y710
X610Y710
X710Y510
X710Y310
X1010Y560
X1010Y660
X1260Y660
X1260Y560
X1260Y410
X1260Y310
X1460Y560
X1660Y410
X1660Y310
X1810Y310
X1810Y510
X1910Y710
X2010Y710
X2110Y510
X2110Y310
X1460Y960
X1260Y1210
X1260Y1310
X1260Y1410
X1260Y1510
X1260Y1610
X1260Y1710
X1260Y1810
X1260Y1910
X1260Y2010
X1510Y2210
X1610Y2210
X1660Y2010
X1660Y1910
X1660Y1810
X1660Y1710
X1660Y1610
X1660Y1510
X1660Y1410
X1660Y1310
X1660Y1210
X1810Y1210
X2010Y1210
X2060Y1410
X2060Y1510
X2060Y1610
X2060Y1710
X2060Y1810
X2060Y1910
X2060Y2010
X1760Y2010
X1760Y1910
X1760Y1810
X1760Y1710
X1760Y1610
X1760Y1510
X1760Y1410
X210Y610
T02
X410Y1510
X410Y1610
X410Y1710
X410Y1810
T03
X710Y810
X410Y210
X1810Y210
X2110Y810
T04
X860Y1252
X860Y1410
X860Y1568
X860Y1852
X860Y2010
X860Y2168
M30
