G75*
G70*
%OFA0B0*%
%FSLAX24Y24*%
%IPPOS*%
%LPD*%
%AMOC8*
5,1,8,0,0,1.08239X$1,22.5*
%
%ADD10C,0.0520*%
%ADD11C,0.0520*%
%ADD12C,0.0520*%
%ADD13C,0.1185*%
%ADD14C,0.0600*%
D10*
X004101Y002845D02*
X004101Y003365D01*
X004101Y004845D02*
X004101Y005365D01*
X005101Y006845D02*
X005101Y007365D01*
X006101Y007365D02*
X006101Y006845D01*
X007101Y005365D02*
X007101Y004845D01*
X007101Y003365D02*
X007101Y002845D01*
X018101Y002845D02*
X018101Y003365D01*
X018101Y004845D02*
X018101Y005365D01*
X019101Y006845D02*
X019101Y007365D01*
X020101Y007365D02*
X020101Y006845D01*
X021101Y005365D02*
X021101Y004845D01*
X021101Y003365D02*
X021101Y002845D01*
X020861Y014105D02*
X020341Y014105D01*
X020341Y015105D02*
X020861Y015105D01*
X020861Y016105D02*
X020341Y016105D01*
X020341Y017105D02*
X020861Y017105D01*
X020861Y018105D02*
X020341Y018105D01*
X020341Y019105D02*
X020861Y019105D01*
X020861Y020105D02*
X020341Y020105D01*
X017861Y020105D02*
X017341Y020105D01*
X017341Y019105D02*
X017861Y019105D01*
X017861Y018105D02*
X017341Y018105D01*
X017341Y017105D02*
X017861Y017105D01*
X017861Y016105D02*
X017341Y016105D01*
X017341Y015105D02*
X017861Y015105D01*
X017861Y014105D02*
X017341Y014105D01*
D11*
X002101Y002105D03*
X002101Y006105D03*
X010101Y005605D03*
X012601Y006605D03*
X014601Y005605D03*
X012601Y004105D03*
X012601Y003105D03*
X016601Y003105D03*
X016601Y004105D03*
X014601Y009605D03*
X016601Y012105D03*
X016601Y013105D03*
X016601Y014105D03*
X016601Y015105D03*
X016601Y016105D03*
X016601Y017105D03*
X016601Y018105D03*
X016601Y019105D03*
X016601Y020105D03*
X016101Y022105D03*
X012601Y020105D03*
X012601Y019105D03*
X012601Y018105D03*
X012601Y017105D03*
X012601Y016105D03*
X012601Y015105D03*
X012601Y014105D03*
X012601Y013105D03*
X012601Y012105D03*
X018101Y012105D03*
X020101Y012105D03*
D12*
X012601Y005605D03*
X010101Y006605D03*
X015101Y022105D03*
D13*
X009193Y021685D02*
X008008Y021685D01*
X008008Y020105D02*
X009193Y020105D01*
X009193Y018525D02*
X008008Y018525D01*
X008008Y015685D02*
X009193Y015685D01*
X009193Y014105D02*
X008008Y014105D01*
X008008Y012525D02*
X009193Y012525D01*
D14*
X004401Y015105D02*
X003801Y015105D01*
X003801Y016105D02*
X004401Y016105D01*
X004401Y017105D02*
X003801Y017105D01*
X003801Y018105D02*
X004401Y018105D01*
M02*
