%
M48
M72
T01C0.0320
T02C0.0400
%
T01
X560Y510
X660Y510
X760Y510
X860Y510
X960Y510
X1060Y510
X1160Y510
X1260Y510
X1360Y510
X1460Y510
X1460Y810
X1360Y810
X1260Y810
X1160Y810
X1060Y810
X960Y810
X860Y810
X760Y810
X660Y810
X560Y810
X410Y760
X410Y560
X510Y1560
X660Y1560
X810Y1560
X960Y1560
X1110Y1560
X1260Y1560
X1410Y1560
X1560Y1560
X1560Y1960
X1410Y1960
X1260Y1960
X1110Y1960
X960Y1960
X810Y1960
X660Y1960
X510Y1960
X2260Y1210
X2360Y1210
X2460Y1210
X2560Y1210
X2660Y1210
X2760Y1210
X2860Y1210
X2960Y1210
X3060Y1210
X3160Y1210
X3260Y1210
X3360Y1210
X3460Y1160
X3460Y960
X3360Y910
X3260Y910
X3160Y910
X3060Y910
X2960Y910
X2860Y910
X2760Y910
X2660Y910
X2560Y910
X2460Y910
X2360Y910
X2260Y910
T02
X560Y260
X660Y260
X760Y260
X860Y260
X960Y260
X1060Y260
X1160Y260
X1260Y260
X1810Y560
X1910Y560
X2010Y560
X2110Y560
X2210Y560
X2310Y560
X2410Y560
X2510Y560
X2210Y260
X2110Y260
X2960Y260
X3060Y260
X3160Y260
X3260Y260
X1360Y1060
X1260Y1060
X1160Y1060
X1060Y1060
X960Y1060
X860Y1060
X760Y1060
X660Y1060
X560Y1060
X560Y1160
X660Y1160
X760Y1160
X860Y1160
X960Y1160
X1060Y1160
X1160Y1160
X1260Y1160
X1360Y1160
X1810Y1610
X1910Y1610
X2010Y1610
X2110Y1610
X2210Y1610
X2310Y1610
X2410Y1610
X2510Y1610
M30
