G75*
G70*
%OFA0B0*%
%FSLAX24Y24*%
%IPPOS*%
%LPD*%
%AMOC8*
5,1,8,0,0,1.08239X$1,22.5*
%
%ADD10C,0.0520*%
%ADD11C,0.0600*%
%ADD12C,0.0520*%
%ADD13C,0.0600*%
%ADD14C,0.0240*%
D10*
X005601Y004841D02*
X005601Y005361D01*
X006601Y005361D02*
X006601Y004841D01*
X007601Y004841D02*
X007601Y005361D01*
X008601Y005361D02*
X008601Y004841D01*
X009601Y004841D02*
X009601Y005361D01*
X010601Y005361D02*
X010601Y004841D01*
X011601Y004841D02*
X011601Y005361D01*
X012601Y005361D02*
X012601Y004841D01*
X013601Y004841D02*
X013601Y005361D01*
X014601Y005361D02*
X014601Y004841D01*
X014601Y007841D02*
X014601Y008361D01*
X013601Y008361D02*
X013601Y007841D01*
X012601Y007841D02*
X012601Y008361D01*
X011601Y008361D02*
X011601Y007841D01*
X010601Y007841D02*
X010601Y008361D01*
X009601Y008361D02*
X009601Y007841D01*
X008601Y007841D02*
X008601Y008361D01*
X007601Y008361D02*
X007601Y007841D01*
X006601Y007841D02*
X006601Y008361D01*
X005601Y008361D02*
X005601Y007841D01*
X022601Y008841D02*
X022601Y009361D01*
X023601Y009361D02*
X023601Y008841D01*
X024601Y008841D02*
X024601Y009361D01*
X025601Y009361D02*
X025601Y008841D01*
X026601Y008841D02*
X026601Y009361D01*
X027601Y009361D02*
X027601Y008841D01*
X028601Y008841D02*
X028601Y009361D01*
X029601Y009361D02*
X029601Y008841D01*
X030601Y008841D02*
X030601Y009361D01*
X031601Y009361D02*
X031601Y008841D01*
X032601Y008841D02*
X032601Y009361D01*
X033601Y009361D02*
X033601Y008841D01*
X033601Y011841D02*
X033601Y012361D01*
X032601Y012361D02*
X032601Y011841D01*
X031601Y011841D02*
X031601Y012361D01*
X030601Y012361D02*
X030601Y011841D01*
X029601Y011841D02*
X029601Y012361D01*
X028601Y012361D02*
X028601Y011841D01*
X027601Y011841D02*
X027601Y012361D01*
X026601Y012361D02*
X026601Y011841D01*
X025601Y011841D02*
X025601Y012361D01*
X024601Y012361D02*
X024601Y011841D01*
X023601Y011841D02*
X023601Y012361D01*
X022601Y012361D02*
X022601Y011841D01*
D11*
X023101Y015801D02*
X023101Y016401D01*
X024101Y016401D02*
X024101Y015801D01*
X025101Y015801D02*
X025101Y016401D01*
X022101Y016401D02*
X022101Y015801D01*
X021101Y015801D02*
X021101Y016401D01*
X020101Y016401D02*
X020101Y015801D01*
X019101Y015801D02*
X019101Y016401D01*
X018101Y016401D02*
X018101Y015801D01*
X018101Y005901D02*
X018101Y005301D01*
X019101Y005301D02*
X019101Y005901D01*
X020101Y005901D02*
X020101Y005301D01*
X021101Y005301D02*
X021101Y005901D01*
X022101Y005901D02*
X022101Y005301D01*
X023101Y005301D02*
X023101Y005901D01*
X024101Y005901D02*
X024101Y005301D01*
X025101Y005301D02*
X025101Y005901D01*
X022101Y002901D02*
X022101Y002301D01*
X021101Y002301D02*
X021101Y002901D01*
X029601Y002901D02*
X029601Y002301D01*
X030601Y002301D02*
X030601Y002901D01*
X031601Y002901D02*
X031601Y002301D01*
X032601Y002301D02*
X032601Y002901D01*
X012601Y002901D02*
X012601Y002301D01*
X011601Y002301D02*
X011601Y002901D01*
X010601Y002901D02*
X010601Y002301D01*
X009601Y002301D02*
X009601Y002901D01*
X008601Y002901D02*
X008601Y002301D01*
X007601Y002301D02*
X007601Y002901D01*
X006601Y002901D02*
X006601Y002301D01*
X005601Y002301D02*
X005601Y002901D01*
D12*
X004101Y005601D03*
X004101Y007601D03*
X005101Y015601D03*
X006601Y015601D03*
X008101Y015601D03*
X009601Y015601D03*
X011101Y015601D03*
X012601Y015601D03*
X014101Y015601D03*
X015601Y015601D03*
X015601Y019601D03*
X014101Y019601D03*
X012601Y019601D03*
X011101Y019601D03*
X009601Y019601D03*
X008101Y019601D03*
X006601Y019601D03*
X005101Y019601D03*
X034601Y011601D03*
X034601Y009601D03*
D13*
X013601Y010601D03*
X012601Y010601D03*
X011601Y010601D03*
X010601Y010601D03*
X009601Y010601D03*
X008601Y010601D03*
X007601Y010601D03*
X006601Y010601D03*
X005601Y010601D03*
X005601Y011601D03*
X006601Y011601D03*
X007601Y011601D03*
X008601Y011601D03*
X009601Y011601D03*
X010601Y011601D03*
X011601Y011601D03*
X012601Y011601D03*
X013601Y011601D03*
D14*
X003101Y001101D02*
X033601Y001101D01*
X033601Y009101D01*
X034601Y009101D01*
X034601Y009601D01*
X032601Y009101D02*
X032601Y002601D01*
X031601Y002601D02*
X031601Y009101D01*
X030601Y009101D02*
X030601Y002601D01*
X029601Y002601D02*
X029601Y009101D01*
X028601Y009101D02*
X028601Y011101D01*
X022601Y011101D01*
X022601Y012101D01*
X023601Y012101D02*
X023601Y013601D01*
X020101Y013601D01*
X020101Y005601D01*
X021101Y005601D02*
X021101Y008101D01*
X022601Y008101D01*
X022601Y009101D01*
X023601Y009101D02*
X023601Y007601D01*
X022101Y007601D01*
X022101Y005601D01*
X023101Y005601D02*
X023101Y007101D01*
X024601Y007101D01*
X024601Y009101D01*
X025601Y009101D02*
X025601Y006601D01*
X024101Y006601D01*
X024101Y005601D01*
X025101Y005601D02*
X026601Y005601D01*
X026601Y009101D01*
X027601Y009101D02*
X027601Y002601D01*
X022101Y002601D01*
X022101Y001601D01*
X013601Y001601D01*
X013601Y005101D01*
X014601Y005101D02*
X014601Y006101D01*
X004101Y006101D01*
X004101Y005601D01*
X003101Y005601D01*
X003101Y010601D01*
X003101Y019601D01*
X005101Y019601D01*
X006601Y019601D01*
X008101Y019601D01*
X009601Y019601D01*
X011601Y019601D01*
X012601Y019601D01*
X014101Y019601D01*
X015601Y019601D01*
X014101Y019601D02*
X012601Y019601D01*
X011601Y019601D02*
X011101Y019601D01*
X009601Y019601D01*
X008101Y019601D02*
X007101Y019601D01*
X006601Y015601D02*
X006601Y014101D01*
X007601Y014101D01*
X007601Y011101D01*
X007601Y010601D01*
X007601Y008101D01*
X008601Y008101D02*
X008601Y014601D01*
X008101Y014601D01*
X008101Y015601D01*
X009601Y015601D02*
X009601Y008101D01*
X010601Y008101D02*
X010601Y014601D01*
X011101Y014601D01*
X011101Y015601D01*
X012601Y015601D02*
X012601Y014101D01*
X011601Y014101D01*
X011601Y008101D01*
X012601Y008101D02*
X012601Y013101D01*
X014101Y013101D01*
X014101Y015601D01*
X015601Y015601D02*
X015601Y012101D01*
X015601Y011601D01*
X013601Y011601D01*
X013601Y008101D01*
X014601Y008101D02*
X014601Y007101D01*
X016101Y007101D01*
X016101Y003601D01*
X022101Y003601D01*
X022101Y002601D01*
X021101Y002601D02*
X014601Y002601D01*
X014601Y005101D01*
X012601Y005101D02*
X012601Y002601D01*
X011601Y002601D02*
X011601Y005101D01*
X010601Y005101D02*
X010601Y002601D01*
X009601Y002601D02*
X009601Y005101D01*
X008601Y005101D02*
X008601Y002601D01*
X007601Y002601D02*
X007601Y005101D01*
X006601Y005101D02*
X006601Y002601D01*
X005601Y002601D02*
X005601Y005101D01*
X003101Y005601D02*
X003101Y001101D01*
X005601Y007101D02*
X005601Y008101D01*
X004101Y008101D01*
X004101Y007601D01*
X005601Y007101D02*
X014601Y007101D01*
X018101Y005601D02*
X018101Y014601D01*
X025601Y014601D01*
X025601Y012101D01*
X026601Y012101D02*
X026601Y016101D01*
X025101Y016101D01*
X024101Y016101D02*
X024101Y017101D01*
X027601Y017101D01*
X027601Y012101D01*
X028601Y012101D02*
X028601Y017601D01*
X023101Y017601D01*
X023101Y016101D01*
X022101Y016101D02*
X022101Y018101D01*
X029601Y018101D01*
X029601Y012101D01*
X030601Y012101D02*
X030601Y018601D01*
X021101Y018601D01*
X021101Y016101D01*
X020101Y016101D02*
X020101Y019101D01*
X031601Y019101D01*
X031601Y012101D01*
X032601Y012101D02*
X032601Y019601D01*
X019101Y019601D01*
X019101Y016101D01*
X018101Y016101D02*
X018101Y020101D01*
X033601Y020101D01*
X033601Y012101D01*
X034601Y011601D02*
X034601Y011101D01*
X028601Y011101D01*
X028601Y009101D02*
X027601Y009101D01*
X024601Y012101D02*
X024601Y014101D01*
X019101Y014101D01*
X019101Y005601D01*
X006601Y008101D02*
X006601Y010601D01*
X006601Y011101D01*
X006601Y013101D01*
X005101Y013101D01*
X005101Y015601D01*
X005601Y011601D02*
X005601Y010601D01*
X003101Y010601D01*
M02*
