%
M48
M72
T01C0.0320
T02C0.0400
%
T01
X1060Y710
X1060Y810
X1060Y910
X1060Y1010
X1060Y1110
X1060Y1210
X1060Y1310
X1060Y1410
X1060Y1510
X1260Y1510
X1260Y1410
X1260Y1310
X1260Y1210
X1260Y1110
X1260Y1010
X1260Y910
X1260Y810
X1360Y560
X1460Y560
X1610Y560
X1760Y710
X1760Y810
X1760Y910
X1760Y1010
X1760Y1110
X1760Y1210
X1760Y1310
X1760Y1410
X1760Y1510
X1610Y1660
X1560Y1510
X1560Y1410
X1560Y1310
X1560Y1210
X1560Y1110
X1560Y1010
X1560Y910
X1560Y810
X1960Y810
X1960Y910
X1960Y1010
X1960Y1110
X1960Y1210
X1960Y1310
X1960Y1410
X1960Y1510
X2260Y1510
X2260Y1410
X2260Y1310
X2260Y1210
X2260Y1110
X2260Y1010
X2260Y910
X2260Y810
X2460Y810
X2460Y710
X2360Y560
X2210Y560
X2110Y560
X2460Y910
X2460Y1010
X2460Y1110
X2460Y1210
X2460Y1310
X2460Y1410
X2460Y1510
X2310Y1660
X2660Y1510
X2660Y1410
X2660Y1310
X2660Y1210
X2660Y1110
X2660Y1010
X2660Y910
X2660Y810
X2960Y810
X2960Y910
X2960Y1010
X2960Y1110
X2960Y1210
X2960Y1310
X2960Y1410
X2960Y1510
X3010Y1660
X3160Y1510
X3160Y1410
X3160Y1310
X3160Y1210
X3160Y1110
X3160Y1010
X3160Y910
X3160Y810
X3160Y710
X3060Y560
X2910Y560
X2810Y560
X3060Y160
X3510Y560
X3610Y560
X3760Y560
X3660Y810
X3660Y910
X3660Y1010
X3660Y1110
X3660Y1210
X3660Y1310
X3660Y1410
X3660Y1510
X3710Y1660
X3360Y1510
X3360Y1410
X3360Y1310
X3360Y1210
X3360Y1110
X3360Y1010
X3360Y910
X3360Y810
X3760Y160
X2360Y160
X1610Y160
X1610Y2060
X1460Y2060
X1360Y2060
X1260Y2310
X1260Y2410
X1260Y2510
X1260Y2610
X1260Y2710
X1260Y2810
X1260Y2910
X1260Y3010
X1060Y3010
X1060Y2910
X1060Y2810
X1060Y2710
X1060Y2610
X1060Y2510
X1060Y2410
X1060Y2310
X1060Y2210
X1560Y2310
X1560Y2410
X1560Y2510
X1560Y2610
X1560Y2710
X1560Y2810
X1560Y2910
X1560Y3010
X1760Y3010
X1760Y2910
X1760Y2810
X1760Y2710
X1760Y2610
X1760Y2510
X1760Y2410
X1760Y2310
X1760Y2210
X1960Y2310
X1960Y2410
X1960Y2510
X1960Y2610
X1960Y2710
X1960Y2810
X1960Y2910
X1960Y3010
X2260Y3010
X2260Y2910
X2260Y2810
X2260Y2710
X2260Y2610
X2260Y2510
X2260Y2410
X2260Y2310
X2460Y2310
X2460Y2210
X2310Y2060
X2160Y2060
X2060Y2060
X2460Y2410
X2460Y2510
X2460Y2610
X2460Y2710
X2460Y2810
X2460Y2910
X2460Y3010
X2660Y3010
X2660Y2910
X2660Y2810
X2660Y2710
X2660Y2610
X2660Y2510
X2660Y2410
X2660Y2310
X2960Y2310
X2960Y2410
X2960Y2510
X2960Y2610
X2960Y2710
X2960Y2810
X2960Y2910
X2960Y3010
X3160Y3010
X3160Y2910
X3160Y2810
X3160Y2710
X3160Y2610
X3160Y2510
X3160Y2410
X3160Y2310
X3160Y2210
X3010Y2060
X2860Y2060
X2760Y2060
X3360Y2310
X3360Y2410
X3360Y2510
X3360Y2610
X3360Y2710
X3360Y2810
X3360Y2910
X3360Y3010
X3660Y3010
X3660Y2910
X3660Y2810
X3660Y2710
X3660Y2610
X3660Y2510
X3660Y2410
X3660Y2310
X3710Y2060
X3560Y2060
X3460Y2060
T02
X3860Y2210
X3860Y2310
X3860Y2410
X3860Y2510
X3860Y2610
X3860Y2710
X3860Y2810
X3860Y2910
X3860Y3010
X3860Y1510
X3860Y1410
X3860Y1310
X3860Y1210
X3860Y1110
X3860Y1010
X3860Y910
X3860Y810
X3860Y710
X310Y910
X310Y1010
X310Y1110
X310Y1210
X310Y1310
X310Y1410
X310Y1510
X310Y1610
X310Y2260
X310Y2360
X310Y2460
X310Y2560
X310Y2660
X310Y2760
X310Y2860
X310Y2960
X310Y3060
M30
