%
M48
M72
T01C0.0315
T02C0.0320
T03C0.0360
T04C0.0400
%
T01
X1060Y810
X1260Y810
X1360Y810
X1460Y810
X1560Y810
X1560Y1310
X1660Y1310
X1460Y1310
X1360Y1310
X1160Y1310
X1060Y1510
X960Y1510
X1260Y1510
X1360Y1510
X1460Y1510
X1460Y2010
X1360Y2010
X1260Y2010
X1160Y2010
X1060Y2010
X1060Y2260
X1260Y2260
X1360Y2260
X1460Y2260
X1560Y2260
X1560Y2010
X1660Y2010
X2060Y1910
X2060Y1810
X2060Y1710
X2060Y1610
X2410Y1610
X2410Y1710
X2410Y1810
X2410Y1910
X2660Y1910
X2660Y1810
X2660Y1710
X2660Y1610
X2660Y1460
X2660Y1360
X2660Y1260
X2660Y1160
X2660Y2060
X2660Y2160
X2660Y2260
X2660Y2360
X1560Y2760
X1460Y2760
X1360Y2760
X1160Y2760
X260Y2010
X260Y1910
X260Y1810
T02
X810Y1860
X960Y1910
X1060Y1910
X1160Y1910
X1260Y1910
X1360Y1910
X1460Y1910
X1560Y1910
X1660Y1910
X1660Y1610
X1560Y1610
X1460Y1610
X1360Y1610
X1260Y1610
X1160Y1610
X1060Y1610
X960Y1610
X810Y1660
X960Y1210
X1060Y1210
X1160Y1210
X1260Y1210
X1360Y1210
X1460Y1210
X1560Y1210
X1660Y1210
X1660Y910
X1560Y910
X1460Y910
X1360Y910
X1260Y910
X1160Y910
X1060Y910
X960Y910
X810Y960
X810Y1160
X960Y2360
X1060Y2360
X1160Y2360
X1260Y2360
X1360Y2360
X1460Y2360
X1560Y2360
X1660Y2360
X1660Y2660
X1560Y2660
X1460Y2660
X1360Y2660
X1260Y2660
X1160Y2660
X1060Y2660
X960Y2660
X810Y2610
X810Y2410
T03
X2160Y1910
X2160Y1810
X2160Y1710
X2160Y1610
X2310Y1610
X2310Y1710
X2310Y1810
X2310Y1910
X2760Y1910
X2760Y1810
X2760Y1710
X2760Y1610
X2760Y1460
X2760Y1360
X2760Y1260
X2760Y1160
X2760Y2060
X2760Y2160
X2760Y2260
X2760Y2360
T04
X360Y2010
X360Y1910
X360Y1810
X360Y1660
X360Y1560
M30
