G75*
G70*
%OFA0B0*%
%FSLAX24Y24*%
%IPPOS*%
%LPD*%
%AMOC8*
5,1,8,0,0,1.08239X$1,22.5*
%
%ADD10C,0.0520*%
%ADD11C,0.0600*%
%ADD12C,0.0520*%
%ADD13C,0.0240*%
%ADD14C,0.0500*%
D10*
X008101Y003841D02*
X008101Y004361D01*
X009101Y004361D02*
X009101Y003841D01*
X010101Y003841D02*
X010101Y004361D01*
X011101Y004361D02*
X011101Y003841D01*
X012101Y003841D02*
X012101Y004361D01*
X013101Y004361D02*
X013101Y003841D01*
X014101Y003841D02*
X014101Y004361D01*
X014101Y006841D02*
X014101Y007361D01*
X013101Y007361D02*
X013101Y006841D01*
X012101Y006841D02*
X012101Y007361D01*
X011101Y007361D02*
X011101Y006841D01*
X010101Y006841D02*
X010101Y007361D01*
X009101Y007361D02*
X009101Y006841D01*
X008101Y006841D02*
X008101Y007361D01*
X008101Y010841D02*
X008101Y011361D01*
X009101Y011361D02*
X009101Y010841D01*
X010101Y010841D02*
X010101Y011361D01*
X011101Y011361D02*
X011101Y010841D01*
X012101Y010841D02*
X012101Y011361D01*
X013101Y011361D02*
X013101Y010841D01*
X014101Y010841D02*
X014101Y011361D01*
X014101Y013841D02*
X014101Y014361D01*
X013101Y014361D02*
X013101Y013841D01*
X012101Y013841D02*
X012101Y014361D01*
X011101Y014361D02*
X011101Y013841D01*
X010101Y013841D02*
X010101Y014361D01*
X009101Y014361D02*
X009101Y013841D01*
X008101Y013841D02*
X008101Y014361D01*
X019101Y007361D02*
X019101Y006841D01*
X020101Y006841D02*
X020101Y007361D01*
X021101Y007361D02*
X021101Y006841D01*
X022101Y006841D02*
X022101Y007361D01*
X023101Y007361D02*
X023101Y006841D01*
X024101Y006841D02*
X024101Y007361D01*
X025101Y007361D02*
X025101Y006841D01*
X025101Y004361D02*
X025101Y003841D01*
X024101Y003841D02*
X024101Y004361D01*
X023101Y004361D02*
X023101Y003841D01*
X022101Y003841D02*
X022101Y004361D01*
X021101Y004361D02*
X021101Y003841D01*
X020101Y003841D02*
X020101Y004361D01*
X019101Y004361D02*
X019101Y003841D01*
D11*
X019101Y014301D02*
X019101Y014901D01*
X018101Y014901D02*
X018101Y014301D01*
X017101Y014301D02*
X017101Y014901D01*
X020101Y014901D02*
X020101Y014301D01*
X022601Y014301D02*
X022601Y014901D01*
X023601Y014901D02*
X023601Y014301D01*
X024601Y014301D02*
X024601Y014901D01*
X025601Y014901D02*
X025601Y014301D01*
X002901Y014101D02*
X002301Y014101D01*
X002301Y013101D02*
X002901Y013101D01*
X002901Y012101D02*
X002301Y012101D01*
X002301Y008101D02*
X002901Y008101D01*
X002901Y007101D02*
X002301Y007101D01*
X002301Y006101D02*
X002901Y006101D01*
X002901Y005101D02*
X002301Y005101D01*
D12*
X006601Y004601D03*
X006601Y006601D03*
X006601Y011601D03*
X006601Y013601D03*
X017601Y006601D03*
X017601Y004601D03*
D13*
X004101Y002601D02*
X001601Y005101D01*
X001601Y007101D01*
X002601Y007101D01*
X002101Y007601D02*
X001601Y008101D01*
X001601Y012101D01*
X002601Y012101D01*
X002601Y011601D02*
X004101Y011601D01*
X004101Y013601D01*
X002101Y013601D01*
X001601Y014101D01*
X001601Y018101D01*
X027101Y018101D01*
X027101Y005601D01*
X025601Y005601D01*
X017601Y005601D01*
X017101Y006101D01*
X017101Y012101D01*
X018601Y012101D01*
X020601Y014101D01*
X020601Y015601D01*
X012101Y015601D01*
X012101Y014101D01*
X011101Y014101D02*
X011101Y015101D01*
X012101Y015601D02*
X009101Y015601D01*
X009101Y014101D01*
X009101Y012601D01*
X014601Y012601D01*
X014601Y010601D01*
X014101Y010101D01*
X013601Y010101D01*
X013601Y006601D01*
X013101Y006101D01*
X012101Y007101D01*
X011101Y007101D02*
X011101Y008101D01*
X010601Y007601D02*
X010601Y005601D01*
X006101Y005601D01*
X004101Y003601D01*
X004601Y003101D01*
X008101Y003101D01*
X009101Y004101D01*
X010101Y004101D02*
X010101Y003101D01*
X011101Y003101D02*
X011101Y002601D01*
X004101Y002601D01*
X004101Y003601D02*
X002601Y005101D01*
X002601Y006101D02*
X003601Y007101D01*
X003601Y007601D01*
X002101Y007601D01*
X002601Y008101D02*
X002601Y011601D01*
X002601Y013101D02*
X003601Y013101D01*
X002601Y013101D01*
X002601Y014101D02*
X002601Y017601D01*
X026601Y017601D01*
X026601Y006101D01*
X021101Y006101D01*
X021101Y007101D01*
X020101Y007101D02*
X020101Y011601D01*
X022601Y011601D01*
X022601Y014601D01*
X023601Y014601D02*
X023601Y011101D01*
X022101Y011101D01*
X022101Y007101D01*
X023101Y007101D02*
X023101Y009601D01*
X024101Y009601D01*
X025601Y009601D01*
X025601Y014601D01*
X025601Y016601D01*
X008101Y016601D01*
X008101Y014101D01*
X008101Y013601D01*
X006601Y013601D01*
X006601Y012601D01*
X006101Y012101D01*
X006101Y011101D01*
X008101Y011101D01*
X008101Y009601D01*
X010101Y009601D01*
X010101Y011101D01*
X011101Y011101D01*
X012101Y011101D02*
X012101Y010101D01*
X013101Y010101D02*
X013101Y011101D01*
X014101Y011101D02*
X014101Y012101D01*
X011601Y012101D01*
X011601Y005101D01*
X012601Y005101D01*
X012601Y002601D01*
X017601Y002601D01*
X017601Y004601D01*
X017601Y004101D01*
X019101Y004101D01*
X020101Y004101D01*
X021101Y004101D01*
X022101Y004101D01*
X022101Y005101D01*
X025101Y005101D01*
X025101Y004101D01*
X025601Y003601D02*
X025601Y005601D01*
X026101Y007101D02*
X025101Y007101D01*
X026101Y007101D02*
X026101Y017101D01*
X005601Y017101D01*
X005601Y006601D01*
X006101Y006101D01*
X009101Y006101D01*
X010101Y007101D01*
X010601Y007601D02*
X010101Y008101D01*
X009101Y007101D01*
X008101Y007101D02*
X008101Y006601D01*
X006601Y006601D01*
X008101Y007101D02*
X008101Y009601D01*
X009101Y010101D02*
X009101Y011101D01*
X008601Y012101D02*
X008601Y016101D01*
X024601Y016101D01*
X024601Y014601D01*
X024101Y015601D02*
X021601Y015601D01*
X021601Y012101D01*
X019101Y012101D01*
X019101Y007101D01*
X017601Y007101D01*
X017601Y006601D01*
X016601Y005601D02*
X016601Y012601D01*
X018101Y012601D01*
X020101Y014601D01*
X019101Y014601D02*
X017601Y013101D01*
X016101Y013101D01*
X016101Y011601D01*
X014101Y009601D01*
X014101Y007101D01*
X013101Y007101D02*
X013101Y010101D01*
X011601Y012101D02*
X008601Y012101D01*
X006601Y012101D01*
X006601Y011601D01*
X010101Y013101D02*
X010101Y014101D01*
X010101Y013101D02*
X015101Y013101D01*
X015101Y013601D01*
X017101Y013601D01*
X018101Y014601D01*
X017101Y014601D02*
X014601Y014601D01*
X014101Y014101D01*
X013101Y014101D02*
X013101Y015101D01*
X024101Y015601D02*
X024101Y009601D01*
X016601Y005601D02*
X014101Y003101D01*
X013101Y003101D01*
X013101Y004101D01*
X014101Y004101D02*
X014101Y005101D01*
X012601Y005101D01*
X011601Y005101D02*
X006601Y005101D01*
X006601Y004601D01*
X011101Y004101D02*
X011101Y003101D01*
X012101Y002101D02*
X012101Y004101D01*
X012101Y002101D02*
X024101Y002101D01*
X025601Y003601D01*
X021101Y004101D02*
X020101Y004101D01*
X019101Y004101D01*
D14*
X011101Y003101D03*
X010101Y003101D03*
X011101Y008101D03*
X012101Y010101D03*
X013101Y010101D03*
X009101Y010101D03*
X003601Y013101D03*
X011101Y015101D03*
X013101Y015101D03*
M02*
