%
M48
M72
T01C0.0315
T02C0.0320
T03C0.0400
%
T01
X1010Y310
X1110Y310
X1110Y810
X1210Y1010
X1310Y1010
X910Y1010
X360Y1310
X1110Y1510
X1310Y1510
T02
X660Y460
X810Y410
X910Y410
X1010Y410
X1110Y410
X1210Y410
X1310Y410
X1410Y410
X1760Y460
X1910Y410
X2010Y410
X2110Y410
X2210Y410
X2310Y410
X2410Y410
X2510Y410
X2510Y710
X2410Y710
X2310Y710
X2210Y710
X2110Y710
X2010Y710
X1910Y710
X1760Y660
X1410Y710
X1310Y710
X1210Y710
X1110Y710
X1010Y710
X910Y710
X810Y710
X660Y660
X810Y1110
X910Y1110
X1010Y1110
X1110Y1110
X1210Y1110
X1310Y1110
X1410Y1110
X1410Y1410
X1310Y1410
X1210Y1410
X1110Y1410
X1010Y1410
X910Y1410
X810Y1410
X660Y1360
X660Y1160
T03
X260Y1210
X260Y1310
X260Y1410
X260Y810
X260Y710
X260Y610
X260Y510
X1710Y1460
X1810Y1460
X1910Y1460
X2010Y1460
X2260Y1460
X2360Y1460
X2460Y1460
X2560Y1460
M30
