G75*
G70*
%OFA0B0*%
%FSLAX24Y24*%
%IPPOS*%
%LPD*%
%AMOC8*
5,1,8,0,0,1.08239X$1,22.5*
%
%ADD10C,0.0600*%
%ADD11C,0.0520*%
%ADD12C,0.0520*%
%ADD13C,0.0240*%
D10*
X007106Y011018D02*
X007106Y011618D01*
X008106Y011618D02*
X008106Y011018D01*
X009106Y011018D02*
X009106Y011618D01*
X010106Y011618D02*
X010106Y011018D01*
X011106Y011018D02*
X011106Y011618D01*
X012106Y011618D02*
X012106Y011018D01*
X013106Y011018D02*
X013106Y011618D01*
X014106Y011618D02*
X014106Y011018D01*
X015106Y011018D02*
X015106Y011618D01*
X016106Y011618D02*
X016106Y011018D01*
D11*
X015606Y006078D02*
X015606Y005558D01*
X014606Y005558D02*
X014606Y006078D01*
X016606Y006078D02*
X016606Y005558D01*
X017606Y005558D02*
X017606Y006078D01*
X017606Y003078D02*
X017606Y002558D01*
X016606Y002558D02*
X016606Y003078D01*
X015606Y003078D02*
X015606Y002558D01*
X014606Y002558D02*
X014606Y003078D01*
D12*
X012606Y004818D03*
X011106Y003818D03*
X011106Y002818D03*
X008106Y002818D03*
X008106Y003818D03*
X006606Y004818D03*
X005106Y003818D03*
X005106Y002818D03*
X003606Y004818D03*
X002106Y003818D03*
X002106Y002818D03*
X009606Y004818D03*
X009606Y008818D03*
X012606Y008818D03*
X006606Y008818D03*
X003606Y008818D03*
D13*
X002106Y002818D02*
X001606Y002818D01*
X001606Y007818D01*
X003106Y009318D01*
X005106Y009318D01*
X007106Y011318D01*
X008106Y011318D02*
X005606Y008818D01*
X003606Y008818D01*
X006606Y008818D02*
X009106Y011318D01*
X009606Y011318D02*
X010106Y011318D01*
X009606Y011318D02*
X009606Y008818D01*
X011106Y010318D02*
X011106Y011318D01*
X012106Y011318D02*
X013606Y009818D01*
X014606Y009818D01*
X014606Y005818D01*
X015606Y005818D02*
X015606Y009818D01*
X015106Y009818D01*
X014606Y010318D01*
X014106Y010318D01*
X013106Y011318D01*
X014106Y011318D02*
X015106Y010318D01*
X015606Y010318D01*
X016106Y009818D01*
X016606Y009818D01*
X016606Y005818D01*
X017606Y005818D02*
X017606Y010318D01*
X016106Y010318D01*
X015106Y011318D01*
X016106Y011318D02*
X016606Y010818D01*
X017606Y010818D01*
X018106Y010318D01*
X018106Y002818D01*
X017606Y002818D01*
X016606Y002818D01*
X015606Y002818D01*
X014606Y002818D01*
X012606Y004818D02*
X012106Y004818D01*
X011106Y003818D01*
X011106Y002818D02*
X008106Y002818D01*
X005106Y002818D01*
X002106Y002818D01*
X002106Y003818D02*
X003106Y004818D01*
X003606Y004818D01*
X005106Y003818D02*
X006106Y004818D01*
X006606Y004818D01*
X008106Y003818D02*
X009106Y004818D01*
X009606Y004818D01*
X012606Y008818D02*
X011106Y010318D01*
M02*
