%
M48
M72
T01C0.0320
T02C0.0400
%
T01
X211Y282
X211Y382
X361Y482
X511Y382
X511Y282
X811Y282
X811Y382
X961Y482
X1111Y382
X1111Y282
X1261Y482
X1461Y582
X1561Y582
X1661Y582
X1761Y582
X1761Y282
X1661Y282
X1561Y282
X1461Y282
X661Y482
X661Y882
X361Y882
X961Y882
X1261Y882
T02
X1311Y1132
X1211Y1132
X1111Y1132
X1011Y1132
X911Y1132
X811Y1132
X711Y1132
X1411Y1132
X1511Y1132
X1611Y1132
M30
